<svg id="Layer_1" data-name="Layer 1" xmlns="http://www.w3.org/2000/svg" viewBox="0 0 643 402.92"><defs><style>.cls-1{fill:none;stroke:#fa5252;stroke-width:9.64px;}.cls-2{fill:#fa5252;}.cls-3{fill:#fff;}</style></defs><title>medex_logo (3)</title><path class="cls-1" d="M95.34,301c-.53-88.55-5.21-300.4,25-242.48s108.52,121.08,171-1c28.58-55.86,35.86,86.28,31.17,242.14"/><circle class="cls-2" cx="323.78" cy="325.65" r="32.49"/><circle class="cls-3" cx="323.78" cy="325.65" r="15.16"/><circle class="cls-2" cx="95.49" cy="325.65" r="32.49"/><circle class="cls-3" cx="95.49" cy="325.65" r="15.16"/><path class="cls-2" d="M405.47,259c0,.83-.06,2-.19,3.54H365.21a14.17,14.17,0,0,0,5.45,9,20.29,20.29,0,0,0,25-2.3l6.41,7.36a21.43,21.43,0,0,1-8.7,6.22,34.43,34.43,0,0,1-26.68-1.24,24.51,24.51,0,0,1-9.95-9.28,28.52,28.52,0,0,1-.1-27,24.3,24.3,0,0,1,9.47-9.37,27.53,27.53,0,0,1,13.58-3.35A26.25,26.25,0,0,1,393,235.9a22.65,22.65,0,0,1,9.18,9.27A27.6,27.6,0,0,1,405.47,259Zm-25.82-16.84a14.44,14.44,0,0,0-9.75,3.45,14.19,14.19,0,0,0-4.79,9h29a14.09,14.09,0,0,0-4.68-9A14.26,14.26,0,0,0,379.65,242.11ZM467,213.23v71H455.5v-6.6a18.47,18.47,0,0,1-7.36,5.45,24.4,24.4,0,0,1-9.57,1.82,27.14,27.14,0,0,1-13.29-3.26,23.49,23.49,0,0,1-9.18-9.18,27.91,27.91,0,0,1-3.35-13.77A27.4,27.4,0,0,1,416.1,245a23.55,23.55,0,0,1,9.18-9.18,27.14,27.14,0,0,1,13.29-3.25,24.26,24.26,0,0,1,9.28,1.72,18.63,18.63,0,0,1,7.17,5.17V213.23Zm-27,61.4a15.69,15.69,0,0,0,7.74-1.91,14.52,14.52,0,0,0,5.46-5.64,18.72,18.72,0,0,0,0-16.84,13.8,13.8,0,0,0-5.46-5.54,15.93,15.93,0,0,0-15.49,0,13.84,13.84,0,0,0-5.45,5.54,18.64,18.64,0,0,0,0,16.84,14.57,14.57,0,0,0,5.45,5.64A15.76,15.76,0,0,0,440,274.63ZM530.63,259c0,.83-.07,2-.19,3.54H490.36a14.17,14.17,0,0,0,5.45,9,20.31,20.31,0,0,0,25-2.3l6.4,7.36a21.43,21.43,0,0,1-8.7,6.22,34.43,34.43,0,0,1-26.68-1.24,24.58,24.58,0,0,1-9.95-9.28,28.48,28.48,0,0,1-.09-27,24.27,24.27,0,0,1,9.46-9.37,27.54,27.54,0,0,1,13.59-3.35,26.24,26.24,0,0,1,13.29,3.35,22.65,22.65,0,0,1,9.18,9.27A27.6,27.6,0,0,1,530.63,259Zm-25.82-16.84a14.47,14.47,0,0,0-9.76,3.45,14.18,14.18,0,0,0-4.78,9h29a14,14,0,0,0-14.44-12.44Zm68.42,42.09-13.1-17.7-13.2,17.7h-13.2l19.89-25.92-19-25.16h13.29l12.53,16.74,12.53-16.74h12.91l-19.13,25,20,26.11Z"/><path class="cls-2" d="M462.64,314.87q-3.19,0-3.19,3.47v1.3h5.93v4h-5.77V341h-5.05V323.67H451v-4h3.55v-1.38a7.31,7.31,0,0,1,2-5.45,9.2,9.2,0,0,1,10.26-.84l-1.42,3.79A4.83,4.83,0,0,0,462.64,314.87Zm14,4.36q4.77,0,7.27,2.3t2.54,6.87V341h-4.76v-2.62a6,6,0,0,1-2.67,2.18,10.51,10.51,0,0,1-4.12.73,10.3,10.3,0,0,1-4.23-.81,6.94,6.94,0,0,1-2.83-2.3,6,6,0,0,1-1-3.35,5.68,5.68,0,0,1,2.14-4.65c1.45-1.18,3.73-1.77,6.82-1.77h5.57v-.33a4.38,4.38,0,0,0-1.37-3.47,5.76,5.76,0,0,0-4-1.21,11.71,11.71,0,0,0-3.59.57,8.74,8.74,0,0,0-2.95,1.57l-2-3.67a12.36,12.36,0,0,1,4.07-2A18.07,18.07,0,0,1,476.62,319.23Zm-.69,18.41a6.44,6.44,0,0,0,3.35-.85,4.73,4.73,0,0,0,2.1-2.5v-2.5h-5.2q-4.37,0-4.36,2.86a2.55,2.55,0,0,0,1.09,2.18A5,5,0,0,0,475.93,337.64Zm44.19-18.41a8.78,8.78,0,0,1,6.46,2.38c1.58,1.56,2.38,3.92,2.38,7.07V341h-5.05V329.32a6.23,6.23,0,0,0-1.25-4.23,4.49,4.49,0,0,0-3.59-1.46,5.23,5.23,0,0,0-4.08,1.7,6.76,6.76,0,0,0-1.54,4.76V341h-5V329.32a6.23,6.23,0,0,0-1.25-4.23,4.49,4.49,0,0,0-3.6-1.46,5.31,5.31,0,0,0-4.11,1.66,6.9,6.9,0,0,0-1.5,4.8V341h-5V319.47h4.8v2.75a7.86,7.86,0,0,1,3-2.22,10.32,10.32,0,0,1,4-.77,9.38,9.38,0,0,1,4.27.93,6.73,6.73,0,0,1,3,2.67,8.75,8.75,0,0,1,3.43-2.63A11.06,11.06,0,0,1,520.12,319.23Zm15.29.24h5V341h-5Zm2.54-3.55a3.26,3.26,0,0,1-2.3-.85,2.9,2.9,0,0,1-.93-2.18,2.78,2.78,0,0,1,.93-2.14,3.19,3.19,0,0,1,2.3-.88,3.31,3.31,0,0,1,2.3.84,2.62,2.62,0,0,1,.93,2.06,3.11,3.11,0,0,1-3.23,3.15Zm9.12-4.84h5V341h-5Zm31.86,8.39-10.09,23.3a10.7,10.7,0,0,1-3.43,4.92,8.16,8.16,0,0,1-4.89,1.46,10,10,0,0,1-3.19-.53,7,7,0,0,1-2.58-1.45l2-3.72a5.34,5.34,0,0,0,1.69,1.09,5.44,5.44,0,0,0,2,.41,3.33,3.33,0,0,0,2.18-.69,6,6,0,0,0,1.62-2.3l.36-.85-9.41-21.64h5.25l6.78,15.95,6.83-15.95Z"/></svg>